<svg width="12" height="22" viewBox="0 0 12 22" fill="none" xmlns="http://www.w3.org/2000/svg">
<path d="M10.0236 5V16.5C10.0236 18.71 8.23356 20.5 6.02356 20.5C3.81356 20.5 2.02356 18.71 2.02356 16.5V4C2.02356 2.62 3.14356 1.5 4.52356 1.5C5.90356 1.5 7.02356 2.62 7.02356 4V14.5C7.02356 15.05 6.57356 15.5 6.02356 15.5C5.47356 15.5 5.02356 15.05 5.02356 14.5V5H3.52356V14.5C3.52356 15.88 4.64356 17 6.02356 17C7.40356 17 8.52356 15.88 8.52356 14.5V4C8.52356 1.79 6.73356 0 4.52356 0C2.31356 0 0.52356 1.79 0.52356 4V16.5C0.52356 19.54 2.98356 22 6.02356 22C9.06356 22 11.5236 19.54 11.5236 16.5V5H10.0236Z" fill="#211B12"/>
</svg>
